<?xml version="1.0" standalone="no"?>
<!DOCTYPE svg PUBLIC "-//W3C//DTD SVG 20010904//EN"
 "http://www.w3.org/TR/2001/REC-SVG-20010904/DTD/svg10.dtd">
<svg version="1.0" xmlns="http://www.w3.org/2000/svg"
 width="40.000000pt" height="40.000000pt" viewBox="0 0 40.000000 40.000000"
 preserveAspectRatio="xMidYMid meet">

<g transform="translate(0.000000,40.000000) scale(0.100000,-0.100000)"
fill="#000000" stroke="none">
<path d="M82 318 c-10 -10 -1 -23 40 -65 l52 -53 -52 -53 c-41 -42 -50 -55
-40 -65 10 -10 23 -1 65 40 l53 52 53 -52 c42 -41 55 -50 65 -40 10 10 1 23
-40 65 l-52 53 52 53 c41 42 50 55 40 65 -10 10 -23 1 -65 -40 l-53 -52 -53
52 c-42 41 -55 50 -65 40z"/>
</g>
</svg>
